# xmcd
#
# Track frame offsets: 
#        150
#        12336
#        27142
#        46188
#        62666
#        78420
#        89836
#        106482
#        120276
#        134247
#        154387
#
# Disc length: 2213 seconds
#
# Revision: 0
# Processed by: cddbd v1.5.2PL0 Copyright (c) Steve Scherf et al.
# Submitted via: ExactAudioCopyFreeDBPlugin 1.0
#
DISCID=9008a30b
DTITLE=Albert Au - A beautiful song ... two stories (B)
DYEAR=2013
DGENRE=Country
TTITLE0=Carrickfergus
TTITLE1=Dick and Jane
TTITLE2=The homecoming
TTITLE3=Perhaps Love
TTITLE4=Today
TTITLE5=My cup runneth over
TTITLE6=First of May
TTITLE7=Sealed with a kiss
TTITLE8=Me and the elephant
TTITLE9=Colours of the rainbow
TTITLE10=Lullaby
EXTD=
EXTT0=
EXTT1=
EXTT2=
EXTT3=
EXTT4=
EXTT5=
EXTT6=
EXTT7=
EXTT8=
EXTT9=
EXTT10=
PLAYORDER=
